<?xml version="1.0" standalone="no"?><!DOCTYPE svg PUBLIC "-//W3C//DTD SVG 1.1//EN" "http://www.w3.org/Graphics/SVG/1.1/DTD/svg11.dtd"><svg t="1665491807113" class="icon" viewBox="0 0 1024 1024" version="1.1" xmlns="http://www.w3.org/2000/svg" p-id="1213" xmlns:xlink="http://www.w3.org/1999/xlink" width="200" height="200"><path d="M512 512m-194.56 0a194.56 194.56 0 1 0 389.12 0 194.56 194.56 0 1 0-389.12 0Z" fill="#fff" p-id="1214"></path><path d="M512 317.44c107.45344 0 194.56 87.10656 194.56 194.56s-87.10656 194.56-194.56 194.56-194.56-87.10656-194.56-194.56 87.10656-194.56 194.56-194.56z m0 30.72c-90.48576 0-163.84 73.35424-163.84 163.84 0 90.48576 73.35424 163.84 163.84 163.84 90.48576 0 163.84-73.35424 163.84-163.84 0-90.48576-73.35424-163.84-163.84-163.84z" fill="#5454F6" p-id="1215"></path><path d="M608.0768 191.68768a38.99392 38.99392 0 0 0-28.09856 19.32288 39.56224 39.56224 0 0 0-2.60608 34.11456 97.5104 97.5104 0 0 1-34.73408 20.1984 38.8864 38.8864 0 0 0-30.67904-14.81216A38.8864 38.8864 0 0 0 481.28 265.32352a98.06848 98.06848 0 0 1-34.73408-20.1728 39.46496 39.46496 0 0 0-2.57536-34.11456 38.99392 38.99392 0 0 0-28.10368-19.32288 100.18816 100.18816 0 0 1 0-40.3456 38.8864 38.8864 0 0 0 28.10368-19.3024 39.46496 39.46496 0 0 0 2.57536-34.10944A97.5104 97.5104 0 0 1 481.28 77.75232a38.92736 38.92736 0 0 0 30.67904 14.81216 38.912 38.912 0 0 0 30.67904-14.81216 97.7408 97.7408 0 0 1 34.73408 20.20352 39.38304 39.38304 0 0 0 2.60608 34.10944 38.8864 38.8864 0 0 0 28.09856 19.3024 99.1232 99.1232 0 0 1 0 40.32m17.23392-52.5312a9.76896 9.76896 0 0 0-10.07616-7.168 19.5328 19.5328 0 0 1-18.25792-9.82528 19.77344 19.77344 0 0 1 0.65536-20.8384 9.89696 9.89696 0 0 0-1.1264-12.31872 117.46816 117.46816 0 0 0-55.7056-32.384 9.78432 9.78432 0 0 0-11.18208 5.20192 19.5328 19.5328 0 0 1-17.60256 10.99264 19.5328 19.5328 0 0 1-17.60768-10.99264 9.81504 9.81504 0 0 0-11.18208-5.20192 117.4528 117.4528 0 0 0-55.72608 32.384 9.9328 9.9328 0 0 0-1.13152 12.34432c4.15744 6.24128 4.41856 14.336 0.65536 20.8128a19.456 19.456 0 0 1-18.25792 9.82016 9.66656 9.66656 0 0 0-10.05056 7.168 119.57248 119.57248 0 0 0-0.0256 64.7168 9.8048 9.8048 0 0 0 10.05056 7.168 19.63008 19.63008 0 0 1 18.25792 9.85088 19.67104 19.67104 0 0 1-0.65536 20.8128 9.89696 9.89696 0 0 0 1.1264 12.3136 117.32992 117.32992 0 0 0 55.7312 32.38912 9.76896 9.76896 0 0 0 11.18208-5.17632 19.456 19.456 0 0 1 17.60256-10.96704c7.5264 0 14.26432 4.1984 17.60256 10.96704 2.05312 4.16768 6.7072 6.31808 11.1872 5.20192a117.4528 117.4528 0 0 0 55.72608-32.384 9.9328 9.9328 0 0 0 1.13152-12.34432 19.73248 19.73248 0 0 1-0.65536-20.7872 19.35872 19.35872 0 0 1 18.25792-9.84576c4.608 0.26112 8.81664-2.68288 10.07616-7.168 2.97472-10.54208 4.47488-21.42208 4.44928-32.3584 0-11.01824-1.50016-21.90336-4.44928-32.38912" fill="#5454F6" p-id="1216"></path><path d="M517.12 199.66976c-16.93696 0-30.72-13.7984-30.72-30.70976a30.7456 30.7456 0 0 1 30.72-30.70976c16.93696 0 30.72 13.7728 30.72 30.70976a30.7456 30.7456 0 0 1-30.72 30.70976M517.12 117.76c-28.22144 0-51.2 22.96832-51.2 51.2s22.97856 51.2 51.2 51.2 51.2-22.96832 51.2-51.2c-0.0256-28.2624-22.97856-51.2-51.2-51.2" fill="#5454F6" p-id="1217"></path><path d="M523.84768 389.12c6.9632 0 13.93664 5.632 13.93664 12.66688v21.10464c4.17792 1.408 12.544 4.224 19.5072 8.448l13.93664-15.48288c4.18304-4.21888 12.544-4.21888 16.72192 0l16.72704 16.88576c4.17792 4.224 4.17792 12.66688 0 16.89088l-15.32928 14.06976c4.17792 7.04 6.9632 15.48288 8.36096 19.70176h20.89984c6.96832 0 11.15136 7.03488 11.15136 14.07488v23.92064c0 7.04-5.57568 14.07488-11.15136 14.07488h-20.89984c-1.39776 4.21888-4.18304 12.66176-8.36096 19.70176l15.32928 14.06976c4.17792 4.224 4.17792 12.66688 0 16.89088l-16.72704 16.88576c-4.17792 4.21888-12.544 4.21888-16.72192 0l-13.93664-15.48288c-5.57568 4.224-15.32928 7.04-19.5072 8.448v21.10464c0 7.04-6.96832 12.66688-13.93664 12.66688h-23.69536c-6.9632 0-13.93664-5.632-13.93664-12.66688v-21.10464c-4.17792-1.408-12.544-4.224-19.5072-8.448l-13.93664 15.48288c-4.18304 4.21888-12.544 4.21888-16.72192 0l-16.72704-16.88576c-4.17792-4.224-4.17792-12.66688 0-16.89088l15.32928-14.06976c-4.17792-7.04-6.9632-15.48288-8.36096-19.70176h-20.89984c-6.96832 0-11.15136-7.03488-11.15136-14.07488v-23.92064c0-7.04 5.57568-14.07488 11.15136-14.07488h20.89984c1.39776-4.21888 4.18304-12.66176 8.36096-19.70176L419.328 449.6384c-4.17792-4.224-4.17792-12.66688 0-16.89088l16.72704-16.88576c4.17792-4.21888 12.544-4.21888 16.72192 0l13.93664 15.48288c5.57568-4.224 15.32928-7.04 19.5072-8.448v-21.10464c0-7.04 6.96832-12.66688 13.93664-12.66688h23.69536zM455.68 504.3456C455.68 537.36448 481.53088 563.2 514.56 563.2s58.88-27.27424 58.88-58.8544c0-33.01376-25.85088-58.84928-58.88-58.84928-33.02912-1.4336-58.88 25.83552-58.88 58.84928z" fill="#5454F6" p-id="1218"></path><path d="M394.24 675.84v140.61568H158.6176V675.84H394.24z m-20.48 20.47488H179.09248v99.65568H373.76v-99.65568z" fill="#5454F6" p-id="1219"></path><path d="M267.53536 812.65664v45.60384h-20.48v-45.60384zM305.54112 812.65664v45.60384h-20.48v-45.60384z" fill="#5454F6" p-id="1220"></path><path d="M343.20896 848.02048v20.48H208.0256v-20.48z" fill="#5454F6" p-id="1221"></path><path d="M196.61824 717.6448h102.60992v15.20128H196.61824zM196.61824 755.65056h155.81696v15.20128H196.61824z" fill="#5454F6" p-id="1222"></path><path d="M880.39936 788.59776c-0.08704-3.7888-0.16896-7.2192-0.16896-9.45152 0-0.8704-0.14336-1.73568-0.41984-2.56-3.46624-10.24-12.47744-13.42464-19.71712-15.97952-1.78176-0.62976-3.46112-1.22368-5.00736-1.88928-3.4048-1.46432-6.95296-3.0208-10.53184-4.58752l-0.95744-0.41984a993.33632 993.33632 0 0 0-15.83616-6.83008 7.76704 7.76704 0 0 0-0.90112-0.31232l-5.56032-1.55136a31.88224 31.88224 0 0 1-2.18624-3.8912c1.536-2.00704 2.95936-4.1216 4.28544-6.2976a76.26752 76.26752 0 0 0 11.0592-39.3728c0-27.15136-6.6048-43.5712-15.96416-53.20704-9.3696-9.63584-21.504-12.48768-32.57344-12.48768-20.0704 0-43.6224 9.35936-47.86176 51.52768a141.34784 141.34784 0 0 0-0.67584 14.16704 75.6992 75.6992 0 0 0 0.65024 9.7792 76.38016 76.38016 0 0 0 3.24608 14.11072l0.1024 0.32768c0.1024 0.30208 0.21504 0.59392 0.32256 0.896a74.46016 74.46016 0 0 0 11.02336 20.56192l-0.20992 0.41984-0.384 0.74752a36.60288 36.60288 0 0 1-0.63488 1.17248 23.3216 23.3216 0 0 1-0.88064 1.4336h0.00512l-0.0768 0.11776-5.56032 1.54624c-0.3072 0.08704-0.6144 0.18944-0.90624 0.31232-5.4016 2.25792-11.19232 4.79744-16.7936 7.24992-3.584 1.56672-7.12704 3.1232-10.53184 4.58752-1.54624 0.6656-3.2256 1.25952-5.00224 1.88928-7.2448 2.56-16.25088 5.73952-19.71712 15.97952-0.2816 0.82432-0.42496 1.6896-0.42496 2.56 0 2.23232-0.08192 5.66272-0.16896 9.45152-0.14336 6.0928-0.3072 13.0048-0.21504 17.78688 0.08704 4.2752 3.5072 7.69536 7.70048 7.69536h173.98784c4.1984 0 7.61856-3.42016 7.70048-7.69536 0.09216-4.78208-0.07168-11.68896-0.21504-17.78688z m-82.5344 9.7792h-91.22304c0.0512-3.06176 0.12288-6.33856 0.19456-9.40544 0.07168-3.09248 0.13824-5.95456 0.16384-8.16128 1.26464-2.1504 4.28032-3.42016 9.78944-5.37088 1.94048-0.68096 3.9424-1.38752 5.95456-2.2528 3.4304-1.47968 7.0144-3.0464 10.624-4.6336 5.39136-2.3552 10.9568-4.79744 16.11776-6.9632l7.04-1.96096a7.5776 7.5776 0 0 0 2.33472-1.10592c2.86208-2.00704 5.07904-5.38624 7.0912-9.2928 0.17408-0.33792 0.34304-0.70144 0.51712-1.0496l0.28672-0.57344c0.57344-1.17248 1.13664-2.36544 1.6896-3.59424l0.34816-0.75776a7.936 7.936 0 0 0 0.7168-3.29216v-0.06656c0-0.29696-0.03072-0.5888-0.06656-0.88576-0.01024-0.08192-0.00512-0.16896-0.02048-0.256-0.03584-0.22528-0.1024-0.45056-0.1536-0.67584-0.03072-0.14336-0.0512-0.29184-0.09216-0.43008-0.0768-0.25088-0.1792-0.49152-0.2816-0.73728-0.04608-0.10752-0.0768-0.22016-0.12288-0.32768a7.9104 7.9104 0 0 0-1.26976-1.93024c-8.064-9.01632-13.2864-21.36576-14.464-33.84832-0.16896-1.78176-0.256-3.56352-0.256-5.3504 0-4.1984 0.16896-8.05376 0.48128-11.58656 2.19136-24.7296 11.5712-33.78688 21.4784-36.89472 3.77344-1.18784 7.62368-1.5104 11.17696-1.5104 4.8896 0 10.33216 0.6144 15.37024 3.23584 9.62048 5.00736 17.7664 17.34656 17.7664 46.75584 0 9.76896-2.59072 19.73248-7.1936 28.34944a55.5008 55.5008 0 0 1-7.5264 10.8544 7.96672 7.96672 0 0 0-2.00192 5.1712l-0.00512 0.06144c0 0.23552 0.0256 0.47616 0.04608 0.71168 0.01024 0.14336 0.00512 0.28672 0.0256 0.43008 0.02048 0.11776 0.0512 0.23552 0.0768 0.34816 0.0512 0.26112 0.09216 0.52736 0.16384 0.78336l0.01536 0.03072c0.1024 0.36352 0.23552 0.7168 0.38912 1.05984l0.34304 0.75776c2.72384 6.016 5.50912 11.648 9.58976 14.51008 0.71168 0.50176 1.50016 0.8704 2.33472 1.10592l7.04 1.96096a974.40768 974.40768 0 0 1 16.14848 6.97856c3.59936 1.57696 7.168 3.14368 10.5984 4.61312 2.00704 0.8704 4.00896 1.57696 5.94944 2.25792 5.50912 1.9456 8.5248 3.22048 9.78944 5.37088 0.0256 2.21184 0.09216 5.0688 0.16384 8.16128 0.07168 3.072 0.1536 6.3488 0.19456 9.40544h-67.33312z" fill="#5454F6" p-id="1223"></path><path d="M524.8 255.08352V332.8h-20.48V255.08352zM322.56 501.76v20.48h-46.08v163.84h-20.48V501.76zM796.16 501.76v128h-20.48v-107.52h-76.8v-20.48z" fill="#5454F6" p-id="1224"></path><path d="M512 0c282.76736 0 512 229.23264 512 512s-229.23264 512-512 512S0 794.76736 0 512 229.23264 0 512 0z m0 30.72C246.1952 30.72 30.72 246.1952 30.72 512s215.4752 481.28 481.28 481.28 481.28-215.4752 481.28-481.28-215.4752-481.28-481.28-481.28z" fill="#5454F6" p-id="1225"></path></svg>
